<svg width="18" height="22" viewBox="0 0 18 22" fill="none" xmlns="http://www.w3.org/2000/svg">
    <path fill-rule="evenodd" clip-rule="evenodd" d="M9.35028 21.948C12.3242 21.948 17.822 14.1125 17.822 9.13986C17.822 4.16725 14.1426 0.136154 9.35028 0.136154C4.55793 0.136154 0.672974 4.16725 0.672974 9.13986C0.672974 14.1125 6.37636 21.948 9.35028 21.948ZM6.91865 15.1857C4.60104 15.1857 2.72224 13.3069 2.72224 10.9893C2.72224 10.6556 2.7612 10.331 2.83481 10.0197C3.18436 9.92535 3.55199 9.87501 3.93138 9.87501C6.24898 9.87501 8.12778 11.7538 8.12778 14.0714C8.12778 14.4051 8.08882 14.7298 8.01521 15.041C7.66566 15.1354 7.29803 15.1857 6.91865 15.1857ZM12.0415 15.1857C14.3591 15.1857 16.2379 13.3069 16.2379 10.9893C16.2379 10.6556 16.1989 10.331 16.1253 10.0197C15.7758 9.92535 15.4081 9.87501 15.0287 9.87501C12.7111 9.87501 10.8323 11.7538 10.8323 14.0714C10.8323 14.4051 10.8713 14.7298 10.9449 15.041C11.2945 15.1354 11.6621 15.1857 12.0415 15.1857Z" fill="#22c55e"/>
</svg>
